<svg width="881" height="292" viewBox="0 0 881 292" fill="none" xmlns="http://www.w3.org/2000/svg">
<g id="FedEx2ndCopy">
<path id="F-vector" d="M0 262V2H152V62H68.7738V95H146.518V129L134.557 152H68.7738V262H0Z" fill="white"/>
<g id="e-vector">
<path id="Ellipse 37" d="M321 179.5C321 154.172 310.991 129.881 293.175 111.971C275.359 94.0616 251.196 84 226 84C200.804 84 176.641 94.0616 158.825 111.971C141.009 129.881 131 154.172 131 179.5L180.06 179.5C180.06 167.252 184.9 155.505 193.515 146.844C202.131 138.184 213.816 133.318 226 133.318C238.184 133.318 249.869 138.184 258.485 146.844C267.1 155.505 271.94 167.252 271.94 179.5H321Z" fill="white"/>
<path id="Ellipse 40" d="M319.569 184.217C318.976 199.354 314.882 214.112 307.622 227.285C300.362 240.459 290.143 251.673 277.799 260.012C265.454 268.351 251.336 273.578 236.596 275.266C221.857 276.954 206.915 275.055 192.993 269.724C179.07 264.393 166.56 255.782 156.487 244.594C146.414 233.406 139.063 219.958 135.034 205.351C131.006 190.743 130.414 175.389 133.308 160.545C136.201 145.7 142.498 131.785 151.684 119.938L189.75 150.787C185.296 156.531 182.243 163.277 180.84 170.474C179.437 177.671 179.724 185.115 181.677 192.197C183.631 199.279 187.195 205.799 192.078 211.223C196.962 216.648 203.027 220.823 209.777 223.407C216.528 225.992 223.772 226.912 230.918 226.094C238.064 225.276 244.909 222.741 250.894 218.698C256.879 214.655 261.833 209.218 265.353 202.832C268.873 196.445 270.858 189.29 271.145 181.951L319.569 184.217Z" fill="white"/>
<rect id="Rectangle 46" x="134" y="159" width="179" height="21" fill="white"/>
</g>
<g id="d-vector">
<path id="Ellipse 41" d="M470 177.5C470 202.249 462.102 226.031 447.972 243.835C433.841 261.639 414.581 272.074 394.25 272.941C373.919 273.808 354.105 265.04 338.985 248.483C323.864 231.926 314.617 208.875 313.193 184.187C311.768 159.499 318.278 135.102 331.349 116.138C344.42 97.1738 363.033 85.1237 383.264 82.5271C403.495 79.9304 423.765 86.99 439.801 102.218C455.838 117.446 466.389 139.653 469.23 164.159L429.54 170.971C428.149 158.978 422.986 148.11 415.138 140.658C407.29 133.206 397.37 129.751 387.469 131.021C377.568 132.292 368.46 138.189 362.063 147.47C355.666 156.751 352.48 168.69 353.177 180.772C353.874 192.854 358.4 204.136 365.8 212.238C373.2 220.341 382.896 224.632 392.846 224.208C402.795 223.784 412.221 218.677 419.137 209.964C426.052 201.251 429.917 189.612 429.917 177.5H470Z" fill="white"/>
<path id="Ellipse 42" d="M464.919 211.3C457.719 234.447 443.414 253.289 425.018 263.857C406.623 274.424 385.573 275.891 366.306 267.948C347.039 260.005 331.059 243.273 321.733 221.277C312.408 199.281 310.466 173.741 316.316 150.037C322.166 126.334 335.352 106.319 353.094 94.2103C370.836 82.1019 391.75 78.8457 411.427 85.128C431.104 91.4104 448.007 106.74 458.576 127.888C469.144 149.035 472.552 174.348 468.08 198.491L428.977 187.773C431.166 175.957 429.498 163.57 424.326 153.22C419.154 142.871 410.882 135.369 401.252 132.294C391.622 129.22 381.387 130.813 372.705 136.739C364.022 142.665 357.569 152.46 354.706 164.06C351.843 175.66 352.793 188.16 357.357 198.924C361.921 209.688 369.741 217.877 379.17 221.764C388.599 225.651 398.901 224.933 407.903 219.762C416.906 214.59 423.907 205.369 427.43 194.041L464.919 211.3Z" fill="white"/>
<rect id="Rectangle 40" x="445" width="64" height="262" fill="white"/>
</g>
<g id="E-vector">
<rect id="Rectangle 41" x="509" width="143" height="62" fill="#290148"/>
<rect id="Rectangle 42" x="509" y="92" width="143" height="62" fill="#290148"/>
<rect id="Rectangle 43" x="509" y="200" width="143" height="62" fill="#290148"/>
<rect id="Rectangle 44" x="509" width="61" height="262" fill="#290148"/>
</g>
<path id="x-vector" d="M736.842 92H662L730.312 176.743L662 259.946L736.842 262L770.998 221.426L801.638 259.946H881L809.172 176.743L881 92H805.656L770.998 132.574L736.842 92Z" fill="#290148"/>
<g id="arrow-vector">
<path id="Polygon 3" d="M726.706 180.255L662.43 260.37C658.883 264.79 651.75 262.282 651.75 256.615V96.385C651.75 90.7176 658.883 88.2097 662.43 92.6303L726.706 172.745C728.466 174.939 728.466 178.061 726.706 180.255Z" fill="#FF6C02" stroke="white" stroke-width="2"/>
<rect id="Rectangle 45" x="570" y="154" width="92" height="46" fill="#FF6C02"/>
</g>
</g>
</svg>
